:version 1.10
:name ASF
:units
  mass 1
  length 1
  angle deg
:documentation
  ASF file generated by Kaydara
:root
  axis xyz
  order  tx ty tz rx ry rz
  position 0 0 0
  orientation 0 0 0
:bonedata
  begin
    id 1
    name lfemurDummy
    direction 0.61522 -0.761478 0.204097
    length 5.68318
    axis 0 -0 0 xyz
  end
  begin
    id 2
    name lfemur
    direction 0.34202 -0.939693 -5.84747e-008
    length 16.9147
    axis 0 -0 20 xyz
    dof rx ry rz
    limits( -inf , inf )
( -inf , inf )
( -inf , inf )

  end
  begin
    id 3
    name ltibia
    direction 0.34202 -0.939693 1.20839e-009
    length 18.0532
    axis 0 -0 20 xyz
    dof rz ry rx
    limits( -inf , inf )
( -inf , inf )
( -inf , inf )

  end
  begin
    id 4
    name lfoot
    direction 0.0841971 -0.23133 0.969225
    length 5.23822
    axis -90 7.62852e-016 20 xyz
    dof ry rx rz
    limits( -inf , inf )
( -inf , inf )
( -inf , inf )

  end
  begin
    id 5
    name ltoes
    direction 0 0 0
    length 0
    axis 0 0 0 xyz
    dof rz ry rx
    limits( -inf , inf )
( -inf , inf )
( -inf , inf )

  end
  begin
    id 6
    name rfemurDummy
    direction -0.625247 -0.75382 0.202044
    length 5.74091
    axis 0 -0 0 xyz
  end
  begin
    id 7
    name rfemur
    direction -0.34202 -0.939693 -1.47013e-008
    length 16.4922
    axis 0 -0 -20 xyz
    dof rx ry rz
    limits( -inf , inf )
( -inf , inf )
( -inf , inf )

  end
  begin
    id 8
    name rtibia
    direction -0.34202 -0.939693 -7.74345e-010
    length 18.2421
    axis 0 -0 -20 xyz
    dof rz ry rx
    limits( -inf , inf )
( -inf , inf )
( -inf , inf )

  end
  begin
    id 9
    name rfoot
    direction -0.124331 -0.341598 0.931586
    length 5.45787
    axis -90 -7.62852e-016 -20 xyz
    dof ry rx rz
    limits( -inf , inf )
( -inf , inf )
( -inf , inf )

  end
  begin
    id 10
    name rtoes
    direction 0 0 0
    length 0
    axis 0 0 0 xyz
    dof rz ry rx
    limits( -inf , inf )
( -inf , inf )
( -inf , inf )

  end
  begin
    id 11
    name lowerbackDummy
    direction 0 0 0
    length 0
    axis 0 -0 0 xyz
  end
  begin
    id 12
    name lowerback
    direction -0.0218484 0.994884 -0.0986304
    length 4.45607
    axis 0 -0 0 xyz
    dof rx ry rz
    limits( -inf , inf )
( -inf , inf )
( -inf , inf )

  end
  begin
    id 13
    name upperback
    direction -0.00973057 0.999717 -0.0217111
    length 4.47449
    axis 0 -0 0 xyz
    dof rx ry rz
    limits( -inf , inf )
( -inf , inf )
( -inf , inf )

  end
  begin
    id 14
    name thorax
    direction -0.000928171 0.999699 0.0245198
    length 4.50973
    axis 0 -0 0 xyz
    dof rx ry rz
    limits( -inf , inf )
( -inf , inf )
( -inf , inf )

  end
  begin
    id 15
    name rclavicle
    direction -0.9009 0.425937 -0.0834055
    length 7.28587
    axis 0 -0 0 xyz
    dof rx ry rz
    limits( -inf , inf )
( -inf , inf )
( -inf , inf )

  end
  begin
    id 16
    name rhumerus
    direction -1 -2.23604e-007 -1.42637e-007
    length 13.5704
    axis 180 30 90 xyz
    dof rx ry rz
    limits( -inf , inf )
( -inf , inf )
( -inf , inf )

  end
  begin
    id 17
    name rradius
    direction -1 5.68281e-008 -4.4952e-007
    length 8.06782
    axis 180 30 90 xyz
    dof rz ry rx
    limits( -inf , inf )
( -inf , inf )
( -inf , inf )

  end
  begin
    id 18
    name rwrist
    direction -1 1.51393e-007 1.38143e-007
    length 4.03391
    axis -90 -90 0 xyz
    dof rz rx ry
    limits( -inf , inf )
( -inf , inf )
( -inf , inf )

  end
  begin
    id 19
    name rthumb
    direction 0 0 0
    length 0
    axis 0 0 0 xyz
    dof ry rx rz
    limits( -inf , inf )
( -inf , inf )
( -inf , inf )

  end
  begin
    id 20
    name rhand
    direction -1 -3.34077e-007 -5.59631e-007
    length 1.29744
    axis -90 -90 0 xyz
    dof ry rx rz
    limits( -inf , inf )
( -inf , inf )
( -inf , inf )

  end
  begin
    id 21
    name rfingers
    direction 0 0 0
    length 0
    axis 0 0 0 xyz
    dof rz ry rx
    limits( -inf , inf )
( -inf , inf )
( -inf , inf )

  end
  begin
    id 22
    name lclavicle
    direction 0.940017 0.332249 -0.0773232
    length 8.29589
    axis 0 -0 0 xyz
    dof rx ry rz
    limits( -inf , inf )
( -inf , inf )
( -inf , inf )

  end
  begin
    id 23
    name lhumerus
    direction 1 7.41158e-008 -1.44768e-008
    length 12.0042
    axis 180 -30 -90 xyz
    dof rx ry rz
    limits( -inf , inf )
( -inf , inf )
( -inf , inf )

  end
  begin
    id 24
    name lradius
    direction 1 -1.32972e-007 3.10821e-007
    length 8.1902
    axis 180 -30 -90 xyz
    dof rz ry rx
    limits( -inf , inf )
( -inf , inf )
( -inf , inf )

  end
  begin
    id 25
    name lwrist
    direction 1 3.08957e-007 4.01394e-007
    length 4.09509
    axis -90 90 0 xyz
    dof rz rx ry
    limits( -inf , inf )
( -inf , inf )
( -inf , inf )

  end
  begin
    id 26
    name lthumb
    direction 0 0 0
    length 0
    axis 0 0 0 xyz
    dof ry rx rz
    limits( -inf , inf )
( -inf , inf )
( -inf , inf )

  end
  begin
    id 27
    name lhand
    direction 1 -1.64125e-007 -6.99514e-007
    length 1.37229
    axis -90 90 0 xyz
    dof ry rx rz
    limits( -inf , inf )
( -inf , inf )
( -inf , inf )

  end
  begin
    id 28
    name lfingers
    direction 0 0 0
    length 0
    axis 0 0 0 xyz
    dof rz ry rx
    limits( -inf , inf )
( -inf , inf )
( -inf , inf )

  end
  begin
    id 29
    name lowerneck
    direction -0.030798 0.998024 0.0547665
    length 3.93918
    axis 0 -0 0 xyz
    dof rx ry rz
    limits( -inf , inf )
( -inf , inf )
( -inf , inf )

  end
  begin
    id 30
    name upperneck
    direction 0.0531588 0.996611 -0.0627736
    length 3.95491
    axis 0 -0 0 xyz
    dof rx ry rz
    limits( -inf , inf )
( -inf , inf )
( -inf , inf )

  end
  begin
    id 31
    name head
    direction 0 0 0
    length 0
    axis 0 0 0 xyz
    dof rx ry rz
    limits( -inf , inf )
( -inf , inf )
( -inf , inf )

  end
:hierarchy
  begin
    root lfemurDummy rfemurDummy lowerbackDummy
    lfemurDummy lfemur
    lfemur ltibia
    ltibia lfoot
    lfoot ltoes
    rfemurDummy rfemur
    rfemur rtibia
    rtibia rfoot
    rfoot rtoes
    lowerbackDummy lowerback
    lowerback upperback
    upperback thorax
    thorax rclavicle lclavicle lowerneck
    rclavicle rhumerus
    rhumerus rradius
    rradius rwrist
    rwrist rthumb rhand
    rhand rfingers
    lclavicle lhumerus
    lhumerus lradius
    lradius lwrist
    lwrist lthumb lhand
    lhand lfingers
    lowerneck upperneck
    upperneck head
  end

:SAMPLES-PER-SECOND 30
:FULLY-SPECIFIED
:DEGREES
92
root  11.89488914 40.37288756 -4.875955431 -151.5039978 -80.58110046 148.2030029
lowerback  10.12549973 2.458709955 -1.083529949
upperback  3.228549957 3.045949936 0.1111249998
thorax  -2.375639915 1.467309952 0.3597249985
lowerneck  -1.08217001 5.484879971 -1.997300029
upperneck  11.6328001 7.447100163 -1.477880001
head  3.965450048 3.452110052 0.1291989982
lclavicle  0 -9.442270133e-015 7.951389973e-016
lhumerus  6.465069771 -7.861159801 74.57959747
lradius  2.964534732e-031 -1.918431093e-031 147.0919952
lwrist  -1.412450015e-030 -0 3.385050058
lhand  -1.496451383e-031 -27.76390076 20.11240005
lfingers  90 7.125020027 -90
lthumb  89.89689403 5.08795885 91.16245106
rclavicle  0 -9.442270133e-015 7.951389973e-016
rhumerus  25.90999985 21.0848999 -72.96379852
rradius  -2.729792235e-031 2.239883567e-031 140.6300049
rwrist  1.412450015e-030 -0 -11.81849957
rhand  -7.920061211e-032 -33.2840004 9.303460121
rfingers  -90 -7.125020027 -90
rthumb  -92.93752616 -24.25625642 -97.11982154
rfemur  -13.85879993 15.64140034 7.216380119
rtibia  -0 0 52.81349945
rfoot  -0 -19.04319954 -8.272689819
rtoes  5.373923086 19.29304026 -105.8922705
lfemur  -16.93549919 3.771339893 -12.98270035
ltibia  -0 0 59.94829941
lfoot  4.421217201e-032 -3.295429945 -3.030390024
ltoes  -4.250644065 -19.5611806 -102.515957
93
root  11.74251076 40.32266572 -4.744933346 -148.0589905 -79.64700317 144.447998
lowerback  10.25580025 2.631279945 -2.220769882
upperback  3.213459969 3.148240089 -0.125466004
thorax  -2.511450052 1.517879963 0.7321709991
lowerneck  -1.213799953 5.451479912 -1.497040033
upperneck  11.75990009 7.421450138 -1.825359941
head  4.074389935 3.441450119 -0.06280039996
lclavicle  0 -9.442270133e-015 7.951389973e-016
lhumerus  5.513959885 -8.332969666 75.1996994
lradius  2.964099362e-031 -1.9191037e-031 147.0789948
lwrist  -3.531125038e-031 -0 2.367229939
lhand  -1.496451383e-031 -27.76390076 20.11240005
lfingers  90 7.125020027 -90
lthumb  89.89689403 5.08795885 91.16245106
rclavicle  0 -9.442270133e-015 7.951389973e-016
rhumerus  25.13829994 21.05179977 -73.02629852
rradius  -2.737554935e-031 2.230389431e-031 140.8289948
rwrist  7.062250077e-031 1.765562519e-031 -11.46829987
rhand  -7.920061211e-032 -33.2840004 9.303460121
rfingers  -90 -7.125020027 -90
rthumb  -92.93752616 -24.25625642 -97.11982154
rfemur  -14.26720047 16.02230072 6.300590038
rtibia  -0 0 53.375
rfoot  -0 -18.81469917 -11.93900013
rtoes  5.373923086 19.29304026 -105.8922705
lfemur  -16.65609932 3.496910095 -13.86540031
ltibia  -0 0 58.94210052
lfoot  4.427902245e-032 -4.556739807 -1.090549946
ltoes  -4.250644065 -19.5611806 -102.515957
94
root  11.62555574 40.25688772 -4.611777884 -147.9370117 -78.94400024 144.151001
lowerback  10.57320023 2.789499998 -2.797199965
upperback  3.12112999 3.284670115 -0.1736609936
thorax  -2.814480066 1.588870049 0.9696009755
lowerneck  -1.435009956 5.424670219 -1.066470027
upperneck  11.88440037 7.413449764 -2.1979599
head  4.199409962 3.434910059 -0.2491160035
lclavicle  0 -9.442270133e-015 7.951389973e-016
lhumerus  4.498630047 -8.72492981 76.01339722
lradius  2.96359686e-031 -1.919879602e-031 147.0639954
lwrist  -7.062250077e-031 -0 1.544999957
lhand  -1.496451383e-031 -27.76390076 20.11240005
lfingers  90 7.125020027 -90
lthumb  89.89689403 5.08795885 91.16245106
rclavicle  0 -9.442270133e-015 7.951389973e-016
rhumerus  24.33460045 21.09399986 -73.11109924
rradius  -2.743307484e-031 2.223310164e-031 140.977005
rwrist  7.062250077e-031 1.765562519e-031 -11.25139999
rhand  -7.920061211e-032 -33.2840004 9.303460121
rfingers  -90 -7.125020027 -90
rthumb  -92.93752616 -24.25625642 -97.11982154
rfemur  -14.83390045 16.37120056 6.045300007
rtibia  -0 0 54.24850082
rfoot  -0 -18.35689926 -13.23279953
rtoes  5.373923086 19.29304026 -105.8922705
lfemur  -16.47649956 3.168359995 -14.08090019
ltibia  -0 0 57.61429977
lfoot  4.435459471e-032 -5.650670052 0.9081940055
ltoes  -4.250644065 -19.5611806 -102.515957
95
root  11.47895573 40.19666657 -4.472933416 -149.1019897 -78.50499725 145.0360107
lowerback  10.83720016 2.850120068 -2.883579969
upperback  3.092940092 3.345499992 -0.1336199939
thorax  -2.998270035 1.620270014 1.037960052
lowerneck  -1.599760056 5.447380066 -0.9113960266
upperneck  11.96430016 7.465360165 -2.408740044
head  4.278679848 3.454250097 -0.3364059925
lclavicle  0 -9.442270133e-015 7.951389973e-016
lhumerus  3.364739895 -8.915610313 76.99559784
lradius  2.966040489e-031 -1.916102256e-031 147.1369934
lwrist  -7.062250077e-031 -0 1.146020055
lhand  -1.496451383e-031 -27.76390076 20.11240005
lfingers  90 7.125020027 -90
lthumb  89.89689403 5.08795885 91.16245106
rclavicle  0 -9.442270133e-015 7.951389973e-016
rhumerus  23.42720032 21.29820061 -73.28839874
rradius  -2.747454527e-031 2.218183414e-031 141.0839996
rwrist  7.062250077e-031 -1.765562519e-031 -10.92310047
rhand  -7.920061211e-032 -33.2840004 9.303460121
rfingers  -90 -7.125020027 -90
rthumb  -92.93752616 -24.25625642 -97.11982154
rfemur  -14.88049984 16.92060089 6.097990036
rtibia  -0 0 55.12590027
rfoot  -0 -18.70879936 -13.8451004
rtoes  5.373923086 19.29304026 -105.8922705
lfemur  -15.98060036 2.754209995 -13.93470001
ltibia  -0 0 55.97460175
lfoot  4.4460489e-032 -6.893710136 2.709810019
ltoes  -4.250644065 -19.5611806 -102.515957
96
root  11.30293298 40.13422268 -4.335755626 -149.2390137 -78.17500305 144.9460144
lowerback  10.78639984 2.662909985 -2.474070072
upperback  3.092930079 3.12658 -0.5275959969
thorax  -2.917949915 1.508890033 0.4337249994
lowerneck  -1.609220028 5.634819984 -0.6609860063
upperneck  11.86550045 7.68200016 -2.18927002
head  4.247409821 3.586129904 -0.2981320024
lclavicle  0 -9.442270133e-015 7.951389973e-016
lhumerus  2.304500103 -8.764479637 77.18569946
lradius  2.969080109e-031 -1.911388851e-031 147.2279968
lwrist  -7.062250077e-031 -3.531125038e-031 1.257779956
lhand  -1.496451383e-031 -27.76390076 20.11240005
lfingers  90 7.125020027 -90
lthumb  89.89689403 5.08795885 91.16245106
rclavicle  0 -9.442270133e-015 7.951389973e-016
rhumerus  22.45999908 21.59639931 -74.12650299
rradius  -2.750240049e-031 2.214728812e-031 141.1560059
rwrist  7.062250077e-031 -0 -10.42790031
rhand  -7.920061211e-032 -33.2840004 9.303460121
rfingers  -90 -7.125020027 -90
rthumb  -92.93752616 -24.25625642 -97.11982154
rfemur  -14.71370029 16.65819931 6.128270149
rtibia  -0 0 55.78820038
rfoot  -0 -17.96899986 -16.05920029
rtoes  5.373923086 19.29304026 -105.8922705
lfemur  -15.40680027 2.168669939 -13.97319984
ltibia  -0 0 54.00640106
lfoot  4.461117193e-032 -8.342969894 4.716259956
ltoes  -4.250644065 -19.5611806 -102.515957
